<svg xmlns="http://www.w3.org/2000/svg" xmlns:xlink="http://www.w3.org/1999/xlink" width="500" zoomAndPan="magnify" viewBox="0 0 375 299.999988" height="400" preserveAspectRatio="xMidYMid meet" version="1.0"><defs><clipPath id="id1"><path d="M 23.5625 45.082031 L 242 45.082031 L 242 231 L 23.5625 231 Z M 23.5625 45.082031 " clip-rule="nonzero"/></clipPath><clipPath id="id2"><path d="M 171 106 L 351.3125 106 L 351.3125 254 L 171 254 Z M 171 106 " clip-rule="nonzero"/></clipPath></defs><rect x="-37.5" width="450" fill="rgb(100%, 100%, 100%)" y="-29.999999" height="359.999986" fill-opacity="1"/><rect x="-37.5" width="450" fill="rgb(0%, 0%, 0%)" y="-29.999999" height="359.999986" fill-opacity="1"/><rect x="-37.5" width="450" fill="rgb(100%, 100%, 100%)" y="-29.999999" height="359.999986" fill-opacity="1"/><rect x="-37.5" width="450" fill="rgb(0%, 0%, 0%)" y="-29.999999" height="359.999986" fill-opacity="1"/><g clip-path="url(#id1)"><path fill="rgb(100%, 100%, 100%)" d="M 156.605469 180.738281 L 156.605469 121.457031 C 156.605469 106.132812 168.457031 93.707031 183.082031 93.707031 L 241.011719 93.707031 L 241.011719 79.574219 C 241.011719 60.617188 226.335938 45.246094 208.25 45.246094 L 56.324219 45.246094 C 38.238281 45.246094 23.5625 60.617188 23.5625 79.578125 L 23.5625 152.925781 C 23.5625 171.882812 38.238281 187.257812 56.324219 187.257812 L 81.394531 187.257812 L 81.394531 227.785156 C 81.394531 230.023438 84.464844 231.601562 86.054688 229.722656 C 98.003906 215.566406 109.9375 201.414062 121.890625 187.261719 L 157.367188 187.261719 C 156.882812 185.160156 156.605469 182.988281 156.605469 180.738281 Z M 156.605469 180.738281 " fill-opacity="1" fill-rule="nonzero"/></g><g clip-path="url(#id2)"><path fill="rgb(100%, 100%, 100%)" d="M 171.632812 131.230469 L 171.632812 197.40625 C 171.632812 211.222656 182.328125 222.433594 195.523438 222.433594 L 258.484375 222.433594 C 267.195312 232.75 275.898438 243.066406 284.605469 253.386719 C 285.765625 254.765625 288.003906 253.609375 288.003906 251.984375 L 288.003906 222.433594 L 327.425781 222.433594 C 340.621094 222.433594 351.3125 211.222656 351.3125 197.40625 L 351.3125 131.230469 C 351.3125 117.410156 340.621094 106.199219 327.425781 106.199219 L 195.523438 106.199219 C 182.328125 106.199219 171.632812 117.40625 171.632812 131.230469 Z M 171.632812 131.230469 " fill-opacity="1" fill-rule="nonzero"/></g></svg>